<svg width="24" height="24" viewBox="0 0 24 24" fill="none" xmlns="http://www.w3.org/2000/svg">
<path fill-rule="evenodd" clip-rule="evenodd" d="M12.5664 2.38399C12.4164 2.23402 12.2129 2.14977 12.0008 2.14977C11.7887 2.14977 11.5852 2.23402 11.4352 2.38399L2.38402 11.4336C2.30952 11.5079 2.25041 11.5962 2.21008 11.6934C2.16975 11.7906 2.14899 11.8948 2.14899 12C2.14899 12.1052 2.16975 12.2094 2.21008 12.3066C2.25041 12.4038 2.30952 12.4921 2.38402 12.5664L11.4352 21.616C11.5852 21.766 11.7887 21.8502 12.0008 21.8502C12.2129 21.8502 12.4164 21.766 12.5664 21.616L21.6176 12.5664C21.6921 12.4921 21.7512 12.4038 21.7916 12.3066C21.8319 12.2094 21.8526 12.1052 21.8526 12C21.8526 11.8948 21.8319 11.7906 21.7916 11.6934C21.7512 11.5962 21.6921 11.5079 21.6176 11.4336L12.5664 2.38399ZM12 4.07999L4.08002 12L12 19.92V4.07999Z" fill="black"/>
</svg>
